{
  "accessors": [
    {
      "bufferView": 2,
      "componentType": 5126,
      "count": 9770,
      "max": [
        0.44676628708839417,
        0.97095751762390137,
        0.44676625728607178
      ],
      "min": [
        -0.44676625728607178,
        -0.97095751762390137,
        -0.44676628708839417
      ],
      "type": "VEC3"
    },
    {
      "bufferView": 2,
      "byteOffset": 117240,
      "componentType": 5126,
      "count": 9770,
      "max": [
        1,
        1,
        1
      ],
      "min": [
        -1,
        -1,
        -1
      ],
      "type": "VEC3"
    },
    {
      "bufferView": 1,
      "componentType": 5126,
      "count": 9770,
      "max": [
        0.87122011184692383,
        0.99805963039398193
      ],
      "min": [
        0.0031445394270122051,
        0.00012648179836105555
      ],
      "type": "VEC2"
    },
    {
      "bufferView": 0,
      "componentType": 5125,
      "count": 49152,
      "max": [
        9769
      ],
      "min": [
        0
      ],
      "type": "SCALAR"
    },
    {
      "bufferView": 2,
      "byteOffset": 234480,
      "componentType": 5126,
      "count": 15725,
      "max": [
        0.44676628708839417,
        2.9709579944610596,
        0.446766197681427
      ],
      "min": [
        -0.44676625728607178,
        1.0437239408493042,
        -0.44676631689071655
      ],
      "type": "VEC3"
    },
    {
      "bufferView": 2,
      "byteOffset": 423180,
      "componentType": 5126,
      "count": 15725,
      "max": [
        1,
        1,
        1
      ],
      "min": [
        -1,
        -1,
        -1
      ],
      "type": "VEC3"
    },
    {
      "bufferView": 1,
      "byteOffset": 78160,
      "componentType": 5126,
      "count": 15725,
      "max": [
        0.81682324409484863,
        0.99868977069854736
      ],
      "min": [
        0.00084215309470891953,
        0.00010016304440796375
      ],
      "type": "VEC2"
    },
    {
      "bufferView": 0,
      "byteOffset": 196608,
      "componentType": 5125,
      "count": 79872,
      "max": [
        15724
      ],
      "min": [
        0
      ],
      "type": "SCALAR"
    },
    {
      "bufferView": 2,
      "byteOffset": 611880,
      "componentType": 5126,
      "count": 14846,
      "max": [
        0.44630172848701477,
        1.1181772947311401,
        0.44630172848701477
      ],
      "min": [
        -0.44630172848701477,
        0.95415860414505005,
        -0.44630172848701477
      ],
      "type": "VEC3"
    },
    {
      "bufferView": 2,
      "byteOffset": 790032,
      "componentType": 5126,
      "count": 14846,
      "max": [
        1,
        1,
        1
      ],
      "min": [
        -1,
        -1,
        -1
      ],
      "type": "VEC3"
    },
    {
      "bufferView": 1,
      "byteOffset": 203960,
      "componentType": 5126,
      "count": 14846,
      "max": [
        0.81455141305923462,
        0.99639111757278442
      ],
      "min": [
        0.0012724150437861681,
        0.00051046890439465642
      ],
      "type": "VEC2"
    },
    {
      "bufferView": 0,
      "byteOffset": 516096,
      "componentType": 5125,
      "count": 76800,
      "max": [
        14845
      ],
      "min": [
        0
      ],
      "type": "SCALAR"
    },
    {
      "bufferView": 2,
      "byteOffset": 968184,
      "componentType": 5126,
      "count": 5170,
      "max": [
        0.32523158192634583,
        2.1149082183837891,
        0.32569858431816101
      ],
      "min": [
        -0.32902663946151733,
        1.0181746482849121,
        -0.32569864392280579
      ],
      "type": "VEC3"
    },
    {
      "bufferView": 2,
      "byteOffset": 1030224,
      "componentType": 5126,
      "count": 5170,
      "max": [
        0.99999988079071045,
        1,
        1
      ],
      "min": [
        -0.9999997615814209,
        -1,
        -1
      ],
      "type": "VEC3"
    },
    {
      "bufferView": 1,
      "byteOffset": 322728,
      "componentType": 5126,
      "count": 5170,
      "max": [
        0.99699914455413818,
        0.98506247997283936
      ],
      "min": [
        0.00022545969113707542,
        0.00018211816495750099
      ],
      "type": "VEC2"
    },
    {
      "bufferView": 0,
      "byteOffset": 823296,
      "componentType": 5125,
      "count": 26112,
      "max": [
        5169
      ],
      "min": [
        0
      ],
      "type": "SCALAR"
    },
    {
      "bufferView": 2,
      "byteOffset": 1092264,
      "componentType": 5126,
      "count": 3879,
      "max": [
        0.28702181577682495,
        1.426328182220459,
        0.28642791509628296
      ],
      "min": [
        -0.28701296448707581,
        -0.28266555070877075,
        -0.2884083092212677
      ],
      "type": "VEC3"
    },
    {
      "bufferView": 2,
      "byteOffset": 1138812,
      "componentType": 5126,
      "count": 3879,
      "max": [
        0.99999940395355225,
        0.99999916553497314,
        0.99999964237213135
      ],
      "min": [
        -0.99999940395355225,
        -0.99999904632568359,
        -0.99999725818634033
      ],
      "type": "VEC3"
    },
    {
      "bufferView": 3,
      "componentType": 5126,
      "count": 3879,
      "max": [
        0.99952787160873413,
        0.99999946355819702,
        0.99921202659606934,
        -1
      ],
      "min": [
        -0.99996340274810791,
        -0.99656140804290771,
        -0.99964296817779541,
        -1
      ],
      "type": "VEC4"
    },
    {
      "bufferView": 1,
      "byteOffset": 364088,
      "componentType": 5126,
      "count": 3879,
      "max": [
        0.97350186109542847,
        0.86742836236953735
      ],
      "min": [
        0.00013385049533098936,
        0.00013385049533098936
      ],
      "type": "VEC2"
    },
    {
      "bufferView": 0,
      "byteOffset": 927744,
      "componentType": 5125,
      "count": 21696,
      "max": [
        3878
      ],
      "min": [
        0
      ],
      "type": "SCALAR"
    }
  ],
  "asset": {
    "extras": {
      "author": "neeb17 (https://sketchfab.com/neeb17)",
      "license": "CC-BY-4.0 (http://creativecommons.org/licenses/by/4.0/)",
      "source": "https://sketchfab.com/3d-models/lipstick-db40146676ce4320968e532517d43f3c",
      "title": "Lipstick"
    },
    "generator": "Sketchfab-9.34.0",
    "version": "2.0"
  },
  "bufferViews": [
    {
      "buffer": 0,
      "byteLength": 1014528,
      "byteOffset": 0,
      "name": "floatBufferViews",
      "target": 34963
    },
    {
      "buffer": 0,
      "byteLength": 395120,
      "byteOffset": 1014528,
      "byteStride": 8,
      "name": "floatBufferViews",
      "target": 34962
    },
    {
      "buffer": 0,
      "byteLength": 1185360,
      "byteOffset": 1409648,
      "byteStride": 12,
      "name": "floatBufferViews",
      "target": 34962
    },
    {
      "buffer": 0,
      "byteLength": 62064,
      "byteOffset": 2595008,
      "byteStride": 16,
      "name": "floatBufferViews",
      "target": 34962
    }
  ],
  "buffers": [
    {
      "byteLength": 2657072,
      "uri": "scene.bin"
    }
  ],
  "images": [
    {
      "uri": "textures/Black_Gloss_baseColor.png"
    },
    {
      "uri": "textures/Black_Gloss_metallicRoughness.png"
    },
    {
      "uri": "textures/Gold_Gloss.001_baseColor.png"
    },
    {
      "uri": "textures/Gold_Gloss.001_metallicRoughness.png"
    },
    {
      "uri": "textures/Gold_Gloss_metallicRoughness.png"
    },
    {
      "uri": "textures/Paint_baseColor.png"
    },
    {
      "uri": "textures/Paint_metallicRoughness.png"
    },
    {
      "uri": "textures/Paint_normal.png"
    }
  ],
  "materials": [
    {
      "doubleSided": true,
      "emissiveFactor": [
        0,
        0,
        0
      ],
      "name": "Black_Gloss",
      "pbrMetallicRoughness": {
        "baseColorFactor": [
          1,
          1,
          1,
          1
        ],
        "baseColorTexture": {
          "index": 0,
          "texCoord": 0
        },
        "metallicFactor": 0,
        "metallicRoughnessTexture": {
          "index": 1,
          "texCoord": 0
        },
        "roughnessFactor": 1
      }
    },
    {
      "doubleSided": true,
      "emissiveFactor": [
        0,
        0,
        0
      ],
      "name": "Gold_Gloss.001",
      "pbrMetallicRoughness": {
        "baseColorFactor": [
          1,
          1,
          1,
          1
        ],
        "baseColorTexture": {
          "index": 2,
          "texCoord": 0
        },
        "metallicFactor": 1,
        "metallicRoughnessTexture": {
          "index": 3,
          "texCoord": 0
        },
        "roughnessFactor": 1
      }
    },
    {
      "doubleSided": true,
      "emissiveFactor": [
        0,
        0,
        0
      ],
      "name": "Gold_Gloss",
      "pbrMetallicRoughness": {
        "baseColorFactor": [
          1,
          1,
          1,
          1
        ],
        "baseColorTexture": {
          "index": 2,
          "texCoord": 0
        },
        "metallicFactor": 1,
        "metallicRoughnessTexture": {
          "index": 4,
          "texCoord": 0
        },
        "roughnessFactor": 1
      }
    },
    {
      "doubleSided": true,
      "emissiveFactor": [
        0,
        0,
        0
      ],
      "name": "Paint",
      "normalTexture": {
        "index": 7,
        "scale": 0.43340300209006272,
        "texCoord": 0
      },
      "pbrMetallicRoughness": {
        "baseColorFactor": [
          1,
          1,
          1,
          1
        ],
        "baseColorTexture": {
          "index": 5,
          "texCoord": 0
        },
        "metallicFactor": 0,
        "metallicRoughnessTexture": {
          "index": 6,
          "texCoord": 0
        },
        "roughnessFactor": 1
      }
    }
  ],
  "meshes": [
    {
      "primitives": [
        {
          "attributes": {
            "NORMAL": 1,
            "POSITION": 0,
            "TEXCOORD_0": 2
          },
          "indices": 3,
          "material": 0,
          "mode": 4
        }
      ]
    },
    {
      "primitives": [
        {
          "attributes": {
            "NORMAL": 5,
            "POSITION": 4,
            "TEXCOORD_0": 6
          },
          "indices": 7,
          "material": 0,
          "mode": 4
        }
      ]
    },
    {
      "primitives": [
        {
          "attributes": {
            "NORMAL": 9,
            "POSITION": 8,
            "TEXCOORD_0": 10
          },
          "indices": 11,
          "material": 1,
          "mode": 4
        }
      ]
    },
    {
      "primitives": [
        {
          "attributes": {
            "NORMAL": 13,
            "POSITION": 12,
            "TEXCOORD_0": 14
          },
          "indices": 15,
          "material": 2,
          "mode": 4
        }
      ]
    },
    {
      "primitives": [
        {
          "attributes": {
            "NORMAL": 17,
            "POSITION": 16,
            "TANGENT": 18,
            "TEXCOORD_0": 19
          },
          "indices": 20,
          "material": 3,
          "mode": 4
        }
      ]
    }
  ],
  "nodes": [
    {
      "children": [
        1
      ],
      "name": "RootNode (gltf orientation matrix)",
      "rotation": [
        -0.70710678118654746,
        -0,
        -0,
        0.70710678118654757
      ]
    },
    {
      "children": [
        2
      ],
      "name": "RootNode (model correction matrix)"
    },
    {
      "children": [
        3
      ],
      "name": "root"
    },
    {
      "children": [
        4,
        6,
        8,
        10,
        12
      ],
      "matrix": [
        1,
        0,
        0,
        0,
        0,
        2.2204460492503131e-16,
        1,
        0,
        0,
        -1,
        2.2204460492503131e-16,
        0,
        0,
        0,
        0,
        1
      ],
      "name": "GLTF_SceneRootNode"
    },
    {
      "children": [
        5
      ],
      "matrix": [
        0.0058515590717259647,
        -0.99998287948165887,
        -0,
        0,
        0.99998287948165887,
        0.0058515590717259647,
        0,
        0,
        0,
        0,
        1,
        0,
        -3.0139780044555664,
        0.46691200137138367,
        0,
        1
      ],
      "name": "Base_0"
    },
    {
      "mesh": 0,
      "name": ""
    },
    {
      "children": [
        7
      ],
      "matrix": [
        -0.049876235459350493,
        -0.99875540606115643,
        -1.3409890561866256e-07,
        0,
        0.92629959593816713,
        -0.046257858859060752,
        -0.37393752026048865,
        0,
        0.37347211368613797,
        -0.018650720023359879,
        0.92745389693580926,
        0,
        -0.82319122552871704,
        0.54669457674026489,
        -0.71737700700759888,
        1
      ],
      "name": "Cap_1"
    },
    {
      "mesh": 1,
      "name": ""
    },
    {
      "children": [
        9
      ],
      "matrix": [
        0.0058515590717259647,
        -0.99998287948165887,
        -0,
        0,
        0.99998287948165887,
        0.0058515590717259647,
        0,
        0,
        0,
        0,
        1,
        0,
        -3.0139780044555664,
        0.46691200137138367,
        0,
        1
      ],
      "name": "Center_2"
    },
    {
      "mesh": 2,
      "name": ""
    },
    {
      "children": [
        11
      ],
      "matrix": [
        0.0058515590717259647,
        -0.99998287948165887,
        -0,
        0,
        0.99998287948165887,
        0.0058515590717259647,
        0,
        0,
        0,
        0,
        1,
        0,
        -3.0139780044555664,
        0.46691200137138367,
        0,
        1
      ],
      "name": "Arm_3"
    },
    {
      "mesh": 3,
      "name": ""
    },
    {
      "children": [
        13
      ],
      "matrix": [
        0.0058515319496423857,
        -0.75837502258044243,
        0.65179220975703256,
        0,
        0.9999828796403547,
        0.0044376267120085355,
        -0.0038141703355346612,
        0,
        1.6099363986388227e-07,
        0.65180336957956742,
        0.758388005841796,
        0,
        -1.5433114767074585,
        0.47551777958869934,
        0,
        1
      ],
      "name": "Paint_4"
    },
    {
      "mesh": 4,
      "name": ""
    }
  ],
  "samplers": [
    {
      "magFilter": 9729,
      "minFilter": 9987,
      "wrapS": 10497,
      "wrapT": 10497
    }
  ],
  "scene": 0,
  "scenes": [
    {
      "name": "OSG_Scene",
      "nodes": [
        0
      ]
    }
  ],
  "textures": [
    {
      "sampler": 0,
      "source": 0
    },
    {
      "sampler": 0,
      "source": 1
    },
    {
      "sampler": 0,
      "source": 2
    },
    {
      "sampler": 0,
      "source": 3
    },
    {
      "sampler": 0,
      "source": 4
    },
    {
      "sampler": 0,
      "source": 5
    },
    {
      "sampler": 0,
      "source": 6
    },
    {
      "sampler": 0,
      "source": 7
    }
  ]
}

